# AST/ASF file generated using VICON BodyLanguage
# -----------------------------------------------
:version 1.10
:name VICON
:units
  mass 1.0
  length 0.45
  angle deg
:documentation
   .ast/.asf automatically generated from VICON data using
   VICON BodyBuilder and BodyLanguage model FoxedUp or BRILLIANT.MOD
:root
   order TX TY TZ RX RY RZ
   axis XYZ
   position 0 0 0  
   orientation 0 0 0 
:bonedata
  begin
     id 1 
     name lhipjoint
     direction 0.722297 -0.617336 0.311742 
     length 2.6635 
     axis 0 0 0  XYZ
  end
  begin
     id 2 
     name lfemur
     direction 0.34202 -0.939693 0  
     length 7.39349  
     axis 0 0 20  XYZ
    dof rx ry rz
    limits (-160.0 20.0)
           (-70.0 70.0)
           (-60.0 70.0)
  end
  begin
     id 3 
     name ltibia
     direction 0.34202 -0.939693 0   
     length 7.36294   
     axis 0 0 20   XYZ
    dof rx
    limits (-10.0 170.0)
  end
  begin
     id 4 
     name lfoot
     direction 0.104879 -0.288152 0.951824   
     length 2.16981   
     axis -90 7.62852e-016 20   XYZ
    dof rx rz
    limits (-45.0 90.0)
           (-70.0 20.0)
  end
  begin
     id 5 
     name ltoes
     direction 1.53586e-011 -4.21895e-011 1   
     length 1.08218   
     axis -90 7.62852e-016 20   XYZ
    dof rx
    limits (-90.0 20.0)
  end
  begin
     id 6 
     name rhipjoint
     direction -0.75102 -0.589393 0.297631   
     length 2.78977  
     axis 0 0 0  XYZ 
  end
  begin
     id 7 
     name rfemur
     direction -0.34202 -0.939693 0   
     length 7.46076   
     axis 0 0 -20   XYZ
    dof rx ry rz
    limits (-160.0 20.0)
           (-70.0 70.0)
           (-70.0 60.0)
  end
  begin
     id 8 
     name rtibia
     direction -0.34202 -0.939693 0   
     length 7.31726   
     axis 0 0 -20   XYZ
    dof rx
    limits (-10.0 170.0)
 end
 begin
     id 9 
     name rfoot
     direction -0.107991 -0.296704 0.948844   
     length 2.09388  
     axis -90 -7.62852e-016 -20   XYZ
    dof rx rz
    limits (-45.0 90.0)
           (-20.0 70.0)
  end
  begin
     id 10 
     name rtoes
     direction -1.53559e-011 -4.21911e-011 1   
     length 1.04433   
     axis -90 -7.62852e-016 -20   XYZ
    dof rx
    limits (-90.0 20.0)
  end
  begin
     id 11 
     name lowerback
     direction 0.0165164 0.98272 0.184358   
     length 1.71896   
     axis 0 0 0   XYZ
    dof rx ry rz
    limits (-20.0 45.0)
           (-30.0 30.0)
           (-30.0 30.0)
  end
  begin
     id 12 
     name upperback
     direction -0.00887249 0.992297 0.123566   
     length 1.71504   
     axis 0 0 0   XYZ
    dof rx ry rz
    limits (-20.0 45.0)
           (-30.0 30.0)
           (-30.0 30.0)
  end
  begin
     id 13 
     name thorax
     direction -0.0157026 0.998908 0.0440032   
     length 1.77022   
     axis 0 0 0   XYZ
    dof rx ry rz
    limits (-20.0 45.0)
           (-30.0 30.0)
           (-30.0 30.0)
  end
  begin
     id 14 
     name lowerneck
     direction -0.0238856 0.998137 0.0561411   
     length 1.89341   
     axis 0 0 0   XYZ
    dof rx ry rz
    limits (-20.0 45.0)
           (-30.0 30.0)
           (-30.0 30.0)
  end
  begin
     id 15 
     name upperneck
     direction 0.0276574 0.952253 -0.304056   
     length 1.86999   
     axis 0 0 0   XYZ
    dof rx ry rz
    limits (-20.0 45.0)
           (-30.0 30.0)
           (-30.0 30.0)
  end
  begin
     id 16
     name head
     direction 0.00800083 0.994258 -0.106712  
     length 1.91492  
     axis 0 0 0   XYZ
    dof rx ry rz
    limits (-20.0 45.0)
           (-30.0 30.0)
           (-30.0 30.0)
  end
  begin
     id 17 
     name lclavicle
     direction 0.97203 0.225407 0.06595  
     length 3.34889  
     axis 0 0 0   XYZ
    dof ry rz
    limits (-20.0 10.0)
           (0.0 20.0)
  end
  begin
     id 18 
     name lhumerus
     direction 1 -4.48973e-011 2.20267e-027   
     length 4.85645   
     axis 180 -30 -90   XYZ
    dof rx ry rz
    limits (-60.0 90.0)
           (-90.0 90.0)
           (-90.0 90.0)
  end
  begin
     id 19
     name lradius
     direction 1 -4.4897e-011 4.60472e-027   
     length 2.79874   
     axis 180 -30 -90   XYZ
    dof rx
    limits (-10.0 170.0)
  end
  begin
     id 20
     name lwrist
     direction 1 -4.48952e-011 1.14928e-026   
     length 1.39937   
     axis -6.29373e-015 90 90   XYZ
    dof ry
    limits (-180.0 0.0)
 end
  begin
     id 21 
     name lhand
     direction 1 -4.48967e-011 2.29886e-026   
     length 0.573398   
     axis -1.46689e-014 90 90   XYZ
    dof rx rz
    limits (-90.0 90.0)
           (-45.0 45.0)
  end
  begin
     id 22 
     name lfingers
     direction 1 -4.48955e-011 4.59726e-026   
     length 0.462289   
     axis -2.93383e-014 90 90   XYZ
    dof rx
    limits (0.0 90.0)
  end
  begin
     id 23
     name lthumb
     direction 0.707107 -6.34866e-011 0.707107   
     length 0.663757   
     axis -90 45 5.69224e-014   XYZ
    dof rx rz
    limits (-45.0 45.0)
           (-45.0 45.0)
  end
  begin
     id 24 
     name rclavicle
     direction -0.981571 0.157346 0.108443   
     length 3.35257  
     axis 0 0 0   XYZ 
    dof ry rz
    limits (-10.0 20.0)
           (-20.0 0.0)
  end
  begin
     id 25 
     name rhumerus
     direction -1 -4.48967e-011 8.58308e-029  
     length 4.67018   
     axis 180 30 90   XYZ
    dof rx ry rz
    limits (-90.0 60.0)
           (-90.0 90.0)
           (-90.0 90.0)
  end
  begin
     id 26 
     name rradius
     direction -1 -4.48958e-011 4.52548e-027   
     length 2.65534   
     axis 180 30 90   XYZ
    dof rx
    limits (-10.0 170.0)
  end
  begin
     id 27 
     name rwrist
     direction -1 -4.48977e-011 1.14952e-026   
     length 1.32767   
     axis -6.29373e-015 -90 -90   XYZ
    dof ry
    limits (-180.0 0.0)
  end
  begin
     id 28
     name rhand
     direction -1 -4.48924e-011 2.29804e-026   
     length 0.594069   
     axis -1.46689e-014 -90 -90   XYZ
    dof rx rz
    limits (-90.0 90.0)
           (-45.0 45.0)
  end
  begin
     id 29
     name rfingers
     direction -1 -4.48998e-011 4.59888e-026   
     length 0.478954   
     axis -2.93383e-014 -90 -90   XYZ
    dof rx
    limits (0.0 90.0)
  end
  begin
     id 30
     name rthumb
     direction -0.707107 -6.34933e-011 0.707107   
     length 0.687685   
     axis -90 -45 -5.69224e-014   XYZ
    dof rx rz
    limits (-45.0 45.0)
           (-45.0 45.0)
  end
:hierarchy
  begin
    root lhipjoint rhipjoint lowerback
    lhipjoint lfemur
    lfemur ltibia
    ltibia lfoot
    lfoot ltoes
    rhipjoint rfemur
    rfemur rtibia
    rtibia rfoot
    rfoot rtoes
    lowerback upperback
    upperback thorax
    thorax lowerneck lclavicle rclavicle
    lowerneck upperneck
    upperneck head
    lclavicle lhumerus
    lhumerus lradius
    lradius lwrist
    lwrist lhand lthumb
    lhand lfingers
    rclavicle rhumerus
    rhumerus rradius
    rradius rwrist
    rwrist rhand rthumb
    rhand rfingers
  end

#!OML:ASF E:\pregnant2\Project 1\Capture day 1\Session 1\pregnant2.ASF
:FULLY-SPECIFIED
:DEGREES
763
root 7.40706 4.73471 12.7783 -147.471 13.4148 135.938
lowerback 0.617003 -7.39998 -10.4107
upperback -10.0957 -13.262 -6.00657
thorax -10.6983 -6.80173 0.549807
lowerneck -14.3259 -9.68148 -8.84771
upperneck 50.086 0.878041 -6.97055
head 25.748 -0.0857065 -1.27383
rclavicle 1.34378e-013 -7.4743e-014
rhumerus -28.2168 37.3485 -75.567
rradius 42.2229
rwrist 7.32835
rhand -54.0329 -56.805
rfingers 7.12502
rthumb -26.4548 -84.9786
lclavicle 1.34378e-013 -7.4743e-014
lhumerus 15.6212 -64.5297 80.3102
lradius 47.6402
lwrist -4.8431
lhand -37.4902 30.9252
lfingers 7.12502
lthumb -10.5475 60.6405
rfemur -82.7644 32.9115 48.6287
rtibia 116.36
rfoot 35.5922 -2.42467
rtoes 13.9021
lfemur -71.8273 18.0048 -0.774137
ltibia 106.185
lfoot -9.08935 -9.22692
ltoes -30.2407
764
root 7.39433 4.74123 12.7755 -147.388 13.3154 136.138
lowerback 0.619767 -7.44253 -10.5097
upperback -10.1081 -13.2635 -5.80712
thorax -10.6356 -6.76612 0.80133
lowerneck -14.0852 -9.83036 -9.03896
upperneck 50.1071 0.678733 -6.95416
head 25.6664 -0.188824 -1.27145
rclavicle 1.59028e-014 6.04305e-014
rhumerus -27.7828 36.9031 -75.168
rradius 41.6792
rwrist 7.70347
rhand -54.0787 -56.6989
rfingers 7.12502
rthumb -26.4986 -84.8659
lclavicle 1.59028e-014 6.04305e-014
lhumerus 13.9425 -63.4887 81.4054
lradius 47.559
lwrist -4.75569
lhand -38.4529 32.0519
lfingers 7.12502
lthumb -11.4761 61.7178
rfemur -82.7641 32.9255 48.8298
rtibia 116.35
rfoot 35.4335 -2.42047
rtoes 14.1172
lfemur -71.96 18.104 -0.525398
ltibia 106.279
lfoot -9.10211 -9.50699
ltoes -30.5377
765
root 7.38099 4.74881 12.7706 -147.308 13.2275 136.336
lowerback 0.604835 -7.45498 -10.5559
upperback -10.0926 -13.2199 -5.64808
thorax -10.5535 -6.71804 0.976803
lowerneck -13.9081 -10.0818 -9.3033
upperneck 50.1966 0.316815 -6.84644
head 25.7029 -0.354592 -1.24829
rclavicle 8.5875e-014 5.08889e-014
rhumerus -27.2548 36.1773 -74.7647
rradius 41.0247
rwrist 8.23557
rhand -54.1181 -56.5762
rfingers 7.12502
rthumb -26.5363 -84.7375
lclavicle 8.5875e-014 5.08889e-014
lhumerus 12.4404 -62.2982 82.4055
lradius 47.5478
lwrist -3.95764
lhand -38.601 32.6412
lfingers 7.12502
lthumb -11.6189 62.2991
rfemur -82.6962 32.9788 49.0574
rtibia 116.413
rfoot 35.1712 -2.24565
rtoes 13.9814
lfemur -72.0562 18.1903 -0.305516
ltibia 106.352
lfoot -9.04422 -9.68836
ltoes -30.7579
766
root 7.36754 4.75819 12.7649 -147.223 13.1672 136.557
lowerback 0.648729 -7.52275 -10.6602
upperback -10.1052 -13.2523 -5.4107
thorax -10.5021 -6.69156 1.27776
lowerneck -13.7453 -10.1726 -9.43062
upperneck 50.1913 0.200149 -6.87295
head 25.6282 -0.425863 -1.2657
rclavicle -8.50798e-014 -2.54444e-014
rhumerus -26.7294 35.6956 -74.2985
rradius 40.4602
rwrist 8.68807
rhand -53.9872 -56.2522
rfingers 7.12502
rthumb -26.4111 -84.4324
lclavicle -8.50798e-014 -2.54444e-014
lhumerus 11.0039 -61.1612 83.2319
lradius 47.3243
lwrist -3.89181
lhand -39.3014 33.9247
lfingers 7.12502
lthumb -12.2942 63.5433
rfemur -82.6447 33.014 49.2694
rtibia 116.432
rfoot 34.9197 -2.17946
rtoes 14.1129
lfemur -72.1315 18.3336 -0.0920558
ltibia 106.415
lfoot -8.99376 -9.85806
ltoes -31.2206
767
root 7.35601 4.76659 12.7595 -147.096 13.1223 136.752
lowerback 0.683723 -7.56133 -10.7854
upperback -10.1432 -13.2609 -5.1917
thorax -10.4794 -6.65522 1.57055
lowerneck -13.5715 -10.3038 -9.56545
upperneck 50.2212 0.0245353 -6.87279
head 25.5909 -0.512575 -1.28079
rclavicle 2.46493e-014 8.11041e-014
rhumerus -26.2788 35.3133 -73.8529
rradius 39.9912
rwrist 8.97163
rhand -53.9805 -56.4023
rfingers 7.12502
rthumb -26.4046 -84.5835
lclavicle 2.46493e-014 8.11041e-014
lhumerus 9.62289 -60.059 84.0427
lradius 47.014
lwrist -3.68182
lhand -39.8301 35.0945
lfingers 7.12502
lthumb -12.804 64.6818
rfemur -82.6218 33.0622 49.4557
rtibia 116.474
rfoot 34.7247 -2.04343
rtoes 14.0519
lfemur -72.2511 18.4784 0.0736897
ltibia 106.473
lfoot -8.89802 -9.9858
ltoes -31.5826
